<?xml version="1.0" encoding="utf-8"?>
<!-- Generator: Adobe Illustrator 24.0.1, SVG Export Plug-In . SVG Version: 6.00 Build 0)  -->
<svg version="1.1" id="Layer_1" xmlns="http://www.w3.org/2000/svg" xmlns:xlink="http://www.w3.org/1999/xlink" x="0px" y="0px"
	 viewBox="0 0 500 500" style="enable-background:new 0 0 500 500;" xml:space="preserve">
<style type="text/css">
	.st0{fill:none;}
	.st1{fill:#A7A9AC;stroke:#000000;stroke-miterlimit:10;}
	.st2{fill:#F15A29;stroke:#000000;stroke-miterlimit:10;}
	.st3{fill:#FFFFFF;stroke:#000000;stroke-miterlimit:10;}
	.st4{fill:none;stroke:#000000;stroke-miterlimit:10;}
	.st5{fill:#BCBEC0;stroke:#000000;stroke-miterlimit:10;}
	.st6{fill:#F4D84D;stroke:#000000;stroke-miterlimit:10;}
	.st7{fill:#603913;stroke:#000000;stroke-miterlimit:10;}
	.st8{fill:#27AAE1;stroke:#000000;stroke-miterlimit:10;}
</style>
<rect x="44.3" y="17.8" class="st0" width="100" height="100"/>
<rect x="343.9" y="17.8" class="st0" width="100" height="100"/>
<polygon class="st1" points="133.2,103.9 54.1,103.9 61,61.6 127,61.6 "/>
<path class="st2" d="M94.3,44.3c0,12.9-14.9,27-14.9,27s-15.5-14.1-15.5-27s6.8-19.8,15.5-19.8S94.3,31.4,94.3,44.3z"/>
<circle class="st3" cx="79.1" cy="41.5" r="6.4"/>
<line class="st4" x1="58.9" y1="103.9" x2="63.9" y2="99.8"/>
<line class="st4" x1="67.3" y1="96.3" x2="72.8" y2="91.4"/>
<path class="st4" d="M79.1,86.6c0,0,3.4-3.8,9-3.8"/>
<line class="st4" x1="93.6" y1="82.7" x2="103.4" y2="84.7"/>
<path class="st4" d="M110.3,84.7c0,0,5.6-0.2,7.6-5.7"/>
<line class="st4" x1="119.7" y1="74.8" x2="123.2" y2="65"/>
<path class="st5" d="M405.6,48.4c0,11.9-7,22.4-13.4,22.4c-5.4,0-13.9-9.9-13.9-21.8S383.2,31,392.2,31
	C401.3,31,405.6,36.5,405.6,48.4z"/>
<path class="st6" d="M356.7,102.8c0,0-2.9-22.3,5.8-27.7l21.1-4.8l8.4,10.4l8.1-10.4l22.6,4c0,0,9.9-0.5,8.7,28.5L356.7,102.8
	L356.7,102.8z"/>
<path class="st7" d="M414.9,86l-15.2,13.2c-2,1.8-2.3,4.8-0.5,6.9l0,0c1.8,2,4.8,2.3,6.9,0.5l15.2-13.2c2-1.8,2.3-4.8,0.5-6.9l0,0
	C420,84.5,416.9,84.3,414.9,86z"/>
<circle class="st8" cx="423.1" cy="83.1" r="13.9"/>
<line class="st4" x1="126.4" y1="61.6" x2="124.2" y2="63.2"/>
</svg>
