<?xml version="1.0" encoding="utf-8"?>
<!-- Generator: Adobe Illustrator 24.0.1, SVG Export Plug-In . SVG Version: 6.00 Build 0)  -->
<svg version="1.1" id="Layer_1" xmlns="http://www.w3.org/2000/svg" xmlns:xlink="http://www.w3.org/1999/xlink" x="0px" y="0px"
	 viewBox="0 0 300 300" style="enable-background:new 0 0 300 300;" xml:space="preserve">
<style type="text/css">
	.st0{fill:none;}
	.st1{fill:#FFFFFF;stroke:#000000;stroke-miterlimit:10;}
</style>
<rect x="180.8" y="8.8" class="st0" width="100" height="100"/>
<polyline class="st1" points="206.5,34 215.1,80.2 250.2,80.2 258,34 "/>
<rect x="16.1" y="8.8" class="st0" width="100" height="100"/>
<polygon class="st1" points="79.5,37.4 60.1,70.8 98.8,70.8 "/>
<polygon class="st1" points="63.1,37.4 43.8,70.8 82.5,70.8 "/>
<polygon class="st1" points="46.1,37.4 26.7,70.8 65.4,70.8 "/>
<polyline class="st1" points="257.8,29.6 200.4,29.6 261.6,29.6 "/>
<rect x="225.3" y="23.5" class="st1" width="12.9" height="6.1"/>
<path d="M221.6,73.6L221.6,73.6c-0.5,0-1-0.4-1-1V38.3c0-0.5,0.4-1,1-1l0,0c0.5,0,1,0.4,1,1v34.3C222.6,73.2,222.2,73.6,221.6,73.6z
	"/>
<path d="M232.2,73.6L232.2,73.6c-0.5,0-1-0.4-1-1V38.3c0-0.5,0.4-1,1-1l0,0c0.5,0,1,0.4,1,1v34.3C233.2,73.2,232.8,73.6,232.2,73.6z
	"/>
<path d="M242.9,73.6L242.9,73.6c-0.5,0-1-0.4-1-1V38.3c0-0.5,0.4-1,1-1l0,0c0.5,0,1,0.4,1,1v34.3C243.9,73.2,243.5,73.6,242.9,73.6z
	"/>
</svg>
