<?xml version="1.0" encoding="utf-8"?>
<!-- Generator: Adobe Illustrator 24.0.1, SVG Export Plug-In . SVG Version: 6.00 Build 0)  -->
<svg version="1.1" id="Layer_1" xmlns="http://www.w3.org/2000/svg" xmlns:xlink="http://www.w3.org/1999/xlink" x="0px" y="0px"
	 viewBox="0 0 300 300" style="enable-background:new 0 0 300 300;" xml:space="preserve">
<style type="text/css">
	.st0{fill:#FFFFFF;stroke:#000000;stroke-width:2;stroke-miterlimit:10;}
</style>
<path class="st0" d="M122.9,68.4H53.3c-6,0-11,5-11,11v45.1c0,6,5,11,11,11h0.8v23.2l40.2-23.2h28.6c6,0,11-5,11-11V79.4
	C133.9,73.3,129,68.4,122.9,68.4z"/>
<path class="st0" d="M176.5,49h-69.7c-6.1,0-11,4.9-11,11v45.1c0,6.1,4.9,11,11,11H145l30.9,17.8v-17.8h0.6c6.1,0,11-4.9,11-11V60
	C187.5,53.9,182.5,49,176.5,49z"/>
<circle class="st0" cx="111.3" cy="82" r="9.4"/>
<circle class="st0" cx="140.1" cy="82" r="9.4"/>
<circle class="st0" cx="168.5" cy="82" r="9.4"/>
</svg>
