<?xml version="1.0" encoding="utf-8"?>
<!-- Generator: Adobe Illustrator 24.0.1, SVG Export Plug-In . SVG Version: 6.00 Build 0)  -->
<svg version="1.1" id="Layer_1" xmlns="http://www.w3.org/2000/svg" xmlns:xlink="http://www.w3.org/1999/xlink" x="0px" y="0px"
	 viewBox="0 0 300 300" style="enable-background:new 0 0 300 300;" xml:space="preserve">
<style type="text/css">
	.st0{fill:none;stroke:#000000;stroke-width:3;stroke-miterlimit:10;}
	.st1{fill:#FFFFFF;stroke:#000000;stroke-width:3;stroke-miterlimit:10;}
</style>
<path class="st0" d="M197.81,239.88h-77.08c-11,0-20-9-20-20V59.46c0-11,9-20,20-20h77.08c11,0,20,9,20,20v160.42
	C217.81,230.88,208.81,239.88,197.81,239.88z"/>
<rect x="101.12" y="63.63" class="st0" width="116.7" height="142.5"/>
<circle class="st0" cx="159.46" cy="223.62" r="8.33"/>
<path class="st1" d="M265.77,54.72h-52.92c-18.1,0-32.92,14.81-32.92,32.92v4.17c0,15.4,10.72,28.41,25.07,31.96V150l43.79-25.28
	h16.97c18.1,0,32.92-14.81,32.92-32.92v-4.17C298.68,69.53,283.87,54.72,265.77,54.72z"/>
<path class="st1" d="M215.14,71.79c0,0-10,6.67-6.25,10.42c0,0,2.92,20,34.58,30.83c0,0,7.92-1.38,7.92-6.94l-12.08-9.73l-4.58,4.17
	c0,0-12.92-9.58-14.17-15l4.58-3.75L215.14,71.79z"/>
<path class="st1" d="M235.14,69.72c0,0,21.67-0.83,20.42,17.08"/>
<path class="st1" d="M235.14,78.25c0,0,13.75,0.63,12.5,10.63"/>
</svg>
