<?xml version="1.0" encoding="utf-8"?>
<!-- Generator: Adobe Illustrator 24.0.1, SVG Export Plug-In . SVG Version: 6.00 Build 0)  -->
<svg version="1.1" id="Layer_1" xmlns="http://www.w3.org/2000/svg" xmlns:xlink="http://www.w3.org/1999/xlink" x="0px" y="0px"
	 viewBox="0 0 300 300" style="enable-background:new 0 0 300 300;" xml:space="preserve">
<style type="text/css">
	.st0{fill:#1B75BC;}
	.st1{fill:#FFFFFF;}
	.st2{fill:#009444;}
	.st3{fill:#F15A29;}
</style>
<ellipse transform="matrix(0.3791 -0.9253 0.9253 0.3791 -38.4663 221.1694)" class="st0" cx="145.58" cy="139.25" rx="44.17" ry="121.67"/>
<ellipse transform="matrix(0.3791 -0.9253 0.9253 0.3791 -38.6937 221.216)" class="st1" cx="145.5" cy="139.44" rx="38.96" ry="96.46"/>
<path class="st2" d="M65.58,128.42c0,0,67.92-42.08,44.58-107.08l37.5,7.08C147.67,28.42,156,91.75,65.58,128.42z"/>
<path class="st3" d="M67.39,128.42c0,0,51.37-10.36,78.19-50.49c0,0,25.82-49.5,91.71-51.51l-10.03,36.12
	c0,0-33.11-1.01-45.48,14.88c0,0-28.76,32.28-64.88,43.32C116.89,120.74,94.82,131.42,67.39,128.42z"/>
</svg>
