<?xml version="1.0" encoding="utf-8"?>
<!-- Generator: Adobe Illustrator 24.0.1, SVG Export Plug-In . SVG Version: 6.00 Build 0)  -->
<svg version="1.1" id="Layer_1" xmlns="http://www.w3.org/2000/svg" xmlns:xlink="http://www.w3.org/1999/xlink" x="0px" y="0px"
	 viewBox="0 0 300 300" style="enable-background:new 0 0 300 300;" xml:space="preserve">
<style type="text/css">
	.st0{fill:none;}
	.st1{fill:#FFFFFF;stroke:#000000;stroke-miterlimit:10;}
	.st2{fill:none;stroke:#000000;stroke-miterlimit:10;}
	.st3{fill:none;stroke:#000000;stroke-width:2;stroke-miterlimit:10;}
</style>
<rect x="11.9" y="14.9" class="st0" width="100" height="100"/>
<polygon class="st1" points="80,66.7 43.8,66.7 47.4,60 75.8,60 "/>
<polygon class="st1" points="97,91.8 26.4,91.8 24,83.5 99.9,83.5 "/>
<rect x="180" y="11.3" class="st0" width="100" height="100"/>
<path class="st1" d="M98,89.7H25.8c-3.3,0-6-2.7-6-6V69.4c0-3.3,2.7-6,6-6H98c3.3,0,6,2.7,6,6v14.3C104,87,101.3,89.7,98,89.7z"/>
<path class="st1" d="M56.2,60"/>
<path class="st1" d="M73.2,41.9c0-6.2-5.1-11.3-11.3-11.3c-6.2,0-11.3,5.1-11.3,11.3c0,5.7,4.2,10.4,9.7,11.2v7h3.3v-7
	C69,52.3,73.2,47.6,73.2,41.9z"/>
<polyline class="st2" points="196.7,52.4 230,21 260.4,52.4 "/>
<polyline class="st2" points="245.2,36.7 245.2,24.7 250.6,24.7 250.6,42.3 "/>
<polyline class="st2" points="201.4,52.4 201.4,89.7 226.3,89.7 226.3,66.7 238.6,66.7 238.6,89.7 255.7,89.7 255.7,52.4 "/>
<line class="st2" x1="213.5" y1="42.3" x2="243.6" y2="42.3"/>
<rect x="206.5" y="61.3" class="st2" width="12.7" height="12.7"/>
<rect x="6.2" y="168.8" class="st0" width="100" height="100"/>
<path class="st3" d="M95.6,247.6H15.9c-1.1,0-2-0.9-2-2v-55.4c0-1.1,0.9-2,2-2h79.6c1.1,0,2,0.9,2,2v55.4
	C97.6,246.7,96.7,247.6,95.6,247.6z"/>
<path d="M89,206.3H63.9c-1.1,0-2-0.9-2-2v-0.1c0-1.1,0.9-2,2-2H89c1.1,0,2,0.9,2,2v0.1C91,205.4,90.1,206.3,89,206.3z"/>
<path d="M89,229.4H63.9c-1.1,0-2-0.9-2-2v-0.1c0-1.1,0.9-2,2-2H89c1.1,0,2,0.9,2,2v0.1C91,228.5,90.1,229.4,89,229.4z"/>
<path d="M89,217.9H63.9c-1.1,0-2-0.9-2-2v-0.1c0-1.1,0.9-2,2-2H89c1.1,0,2,0.9,2,2v0.1C91,217,90.1,217.9,89,217.9z"/>
<path class="st3" d="M38.6,202.2c0,4.7-4,7.2-5.4,7.2c-1.5,0-4.9-3.1-5.3-6.4c-0.6-4.7,1.9-8.8,5.4-8.8S38.6,197.6,38.6,202.2z"/>
<path class="st3" d="M42.2,213.8"/>
<path class="st3" d="M20.2,224.6c0,0-0.9-11.6,2.4-13.6h6.5l4.3,3.6l3.3-3.6h6.9c0,0,2.2,0.6,0.9,13"/>
</svg>
