<?xml version="1.0" encoding="utf-8"?>
<!-- Generator: Adobe Illustrator 24.0.1, SVG Export Plug-In . SVG Version: 6.00 Build 0)  -->
<svg version="1.1" id="Layer_1" xmlns="http://www.w3.org/2000/svg" xmlns:xlink="http://www.w3.org/1999/xlink" x="0px" y="0px"
	 viewBox="0 0 300 300" style="enable-background:new 0 0 300 300;" xml:space="preserve">
<style type="text/css">
	.st0{fill:none;}
	.st1{fill:#FFFFFF;stroke:#000000;stroke-width:3;stroke-miterlimit:10;}
	.st2{fill:#FFFFFF;stroke:#000000;stroke-width:2;stroke-miterlimit:10;}
	.st3{fill:none;stroke:#000000;stroke-width:3;stroke-miterlimit:10;}
	.st4{fill:none;stroke:#000000;stroke-width:2;stroke-miterlimit:10;}
</style>
<rect x="18.9" y="10.9" class="st0" width="100" height="100"/>
<path class="st1" d="M85.8,86.9H52c-1.6,0-2.8-1.3-2.8-2.8V37.4c2.9-3.9,2.9-3.9,4.8-6.7h31.8c1.6,0,2.8,1.3,2.8,2.8V84
	C88.7,85.6,87.4,86.9,85.8,86.9z"/>
<path d="M82.1,51.7H55.7c-0.5,0-0.9-0.4-0.9-0.9v0c0-0.5,0.4-0.9,0.9-0.9h26.4c0.5,0,0.9,0.4,0.9,0.9v0C83,51.3,82.6,51.7,82.1,51.7
	z"/>
<path d="M82.1,60.8H55.7c-0.5,0-0.9-0.4-0.9-0.9v0c0-0.5,0.4-0.9,0.9-0.9h26.4c0.5,0,0.9,0.4,0.9,0.9v0C83,60.4,82.6,60.8,82.1,60.8
	z"/>
<path d="M82.1,70.4H55.7c-0.5,0-0.9-0.4-0.9-0.9l0,0c0-0.5,0.4-0.9,0.9-0.9h26.4c0.5,0,0.9,0.4,0.9,0.9l0,0
	C83,70,82.6,70.4,82.1,70.4z"/>
<rect x="171.6" y="7.7" class="st0" width="100" height="100"/>
<path class="st1" d="M49.2,38c0,0,3.3-0.4,5-1.9c0,0,1.5-2.1,0-4.5"/>
<polygon class="st2" points="86.5,86.3 84.1,84.1 86.5,81.9 83.2,82.1 83.4,78.8 81.2,81.2 79,78.8 79.2,82.1 75.9,81.9 78.3,84.1 
	75.9,86.3 79.2,86.1 79,89.4 81.2,87 83.4,89.4 83.2,86.1 "/>
<circle class="st1" cx="81.2" cy="84.1" r="2.8"/>
<polyline class="st2" points="79.1,96.3 79.1,94.1 81,96.1 83.2,94.1 83.2,96.3 "/>
<circle class="st3" cx="218.2" cy="52.4" r="28.2"/>
<polyline class="st3" points="203.1,72.1 203.1,47.5 208.4,41.8 232.6,41.8 232.6,73.8 "/>
<path class="st4" d="M204.7,48.3c0,0,5.2,0.6,4.6-4.7"/>
<path d="M226,54.5h-15.6c-0.6,0-1.1-0.5-1.1-1.1l0,0c0-0.6,0.5-1.1,1.1-1.1H226c0.6,0,1.1,0.5,1.1,1.1l0,0
	C227,54,226.6,54.5,226,54.5z"/>
<path d="M225.6,65.2H210c-0.6,0-1.1-0.5-1.1-1.1v0c0-0.6,0.5-1.1,1.1-1.1h15.6c0.6,0,1.1,0.5,1.1,1.1v0
	C226.7,64.8,226.2,65.2,225.6,65.2z"/>
<path d="M225.6,59.9H210c-0.6,0-1.1-0.5-1.1-1.1l0,0c0-0.6,0.5-1.1,1.1-1.1h15.6c0.6,0,1.1,0.5,1.1,1.1l0,0
	C226.7,59.4,226.2,59.9,225.6,59.9z"/>
<path class="st3" d="M238,76.6l15.5,14.6c0,0,6.5-2.9,6.5-7.3l-15.5-14.1"/>
</svg>
